<?xml version="1.0" encoding="iso-8859-1"?>
<!-- Generator: Adobe Illustrator 19.0.0, SVG Export Plug-In . SVG Version: 6.00 Build 0)  -->
<svg version="1.1" id="Capa_1" xmlns="http://www.w3.org/2000/svg" xmlns:xlink="http://www.w3.org/1999/xlink" x="0px" y="0px"
	 viewBox="0 0 512 512" style="enable-background:new 0 0 512 512;" xml:space="preserve">
<path style="fill:#92ECF6;" d="M256,241H15c-8.284,0-15,6.716-15,15v241c0,8.284,6.716,15,15,15h241c8.284,0,15-6.716,15-15V256
	C271,247.716,264.284,241,256,241z"/>
<path style="fill:#2FD6F0;" d="M266.607,245.394L4.393,507.606C7.108,510.321,10.858,512,15,512h241c8.284,0,15-6.716,15-15V256
	C271,251.858,269.321,248.108,266.607,245.394z"/>
<path style="fill:#3E98EF;" d="M497,0H135c-8.284,0-15,6.716-15,15v362c0,8.284,6.716,15,15,15h362c8.284,0,15-6.716,15-15V15
	C512,6.716,505.284,0,497,0z"/>
<path style="fill:#3079DA;" d="M507.606,4.394L124.393,387.606C127.108,390.321,130.858,392,135,392h362c8.284,0,15-6.716,15-15V15
	C512,10.858,510.321,7.108,507.606,4.394z"/>
<g>
	<path style="fill:#666D7F;" d="M15,88C6.716,88,0,81.284,0,73V15C0,6.716,6.716,0,15,0h58c8.284,0,15,6.716,15,15s-6.716,15-15,15
		H30v43C30,81.284,23.284,88,15,88z"/>
	<path style="fill:#666D7F;" d="M15,215c-8.284,0-15-6.716-15-15v-70c0-8.284,6.716-15,15-15s15,6.716,15,15v70
		C30,208.284,23.284,215,15,215z"/>
</g>
<path style="fill:#FFF54F;" d="M326.607,206.605L431,102.213V124c0,8.284,6.716,15,15,15s15-6.716,15-15V66.005
	C461.004,57.796,454.307,51,446,51h-58c-8.284,0-15,6.716-15,15s6.716,15,15,15h21.787L305.395,185.393
	c-5.858,5.857-5.858,15.355,0,21.213S320.75,212.463,326.607,206.605z"/>
<g>
	<path style="fill:#585969;" d="M497,424c-8.284,0-15,6.716-15,15v43h-43c-8.284,0-15,6.716-15,15s6.716,15,15,15h58
		c8.284,0,15-6.716,15-15v-58C512,430.716,505.284,424,497,424z"/>
	<path style="fill:#585969;" d="M382,482h-70c-8.284,0-15,6.716-15,15s6.716,15,15,15h70c8.284,0,15-6.716,15-15
		S390.284,482,382,482z"/>
</g>
<path style="fill:#FFDD3E;" d="M456.595,55.405l-151.2,151.2l0,0c5.858,5.858,15.355,5.857,21.213,0L431,102.213V124
	c0,8.284,6.716,15,15,15s15-6.716,15-15V66.005C461.002,61.89,459.32,58.131,456.595,55.405z"/>
<g>
</g>
<g>
</g>
<g>
</g>
<g>
</g>
<g>
</g>
<g>
</g>
<g>
</g>
<g>
</g>
<g>
</g>
<g>
</g>
<g>
</g>
<g>
</g>
<g>
</g>
<g>
</g>
<g>
</g>
</svg>
